<?xml version="1.0" encoding="UTF-8" standalone="no"?>
<svg
   xmlns:dc="http://purl.org/dc/elements/1.1/"
   xmlns:cc="http://creativecommons.org/ns#"
   xmlns:rdf="http://www.w3.org/1999/02/22-rdf-syntax-ns#"
   xmlns:svg="http://www.w3.org/2000/svg"
   xmlns="http://www.w3.org/2000/svg"
   xmlns:sodipodi="http://sodipodi.sourceforge.net/DTD/sodipodi-0.dtd"
   xmlns:inkscape="http://www.inkscape.org/namespaces/inkscape"
   viewBox="-960 -488 1233.8219 341.38416"
   width="1233.8219"
   height="341.38416"
   version="1.1"
   id="svg336"
   sodipodi:docname="nn.svg"
   inkscape:version="1.0.1 (0767f8302a, 2020-10-17)">
  <metadata
     id="metadata342">
    <rdf:RDF>
      <cc:Work
         rdf:about="">
        <dc:format>image/svg+xml</dc:format>
        <dc:type
           rdf:resource="http://purl.org/dc/dcmitype/StillImage" />
        <dc:title></dc:title>
      </cc:Work>
    </rdf:RDF>
  </metadata>
  <defs
     id="defs340" />
  <sodipodi:namedview
     pagecolor="#ffffff"
     bordercolor="#666666"
     borderopacity="1"
     objecttolerance="10"
     gridtolerance="10"
     guidetolerance="10"
     inkscape:pageopacity="0"
     inkscape:pageshadow="2"
     inkscape:window-width="1920"
     inkscape:window-height="1043"
     id="namedview338"
     showgrid="false"
     lock-margins="true"
     fit-margin-top="0"
     fit-margin-left="0"
     fit-margin-right="0"
     fit-margin-bottom="0"
     inkscape:zoom="0.48466277"
     inkscape:cx="534.26652"
     inkscape:cy="257.47321"
     inkscape:window-x="0"
     inkscape:window-y="0"
     inkscape:window-maximized="1"
     inkscape:current-layer="svg336" />
  <path
     d="m 261.46367,-472.34027 v 139.97033 m 0,0 -24.22115,3.45953 m 24.22115,-3.45953 11.85822,7.06631 m -36.07937,-143.57711 v 139.97033 m 0,0 11.85822,7.06631"
     style="fill:none;stroke:#000000;stroke-width:1;stroke-linecap:round"
     id="path2" />
  <path
     d="m 249.10074,-321.8441 -11.85822,-7.06631 24.22115,-3.45953 z m 24.22115,-3.45953 -24.22115,3.45953 12.36293,-10.52584 z m -11.85822,-7.06631 -24.22115,3.45953 v -139.97033 z m 11.85822,7.06631 -11.85822,-7.06631 v -139.97033 z"
     style="fill:#eeeeee;fill-opacity:0.4"
     id="path4" />
  <path
     d="m 249.10074,-321.8441 24.22115,-3.45953 m 0,-139.97033 v 139.97033"
     style="fill:none;stroke:#000000;stroke-width:1;stroke-linecap:round"
     id="path6" />
  <path
     d="m 261.46367,-472.34027 v 139.97033 l -24.22115,-136.5108 z"
     style="fill:#eeeeee;fill-opacity:0.4"
     id="path8" />
  <path
     d="M 249.10074,-461.81443 V -321.8441 M 167.35505,-487.5 v 197.17304 m 0,0 -24.22115,3.45952 m 24.22115,-3.45952 11.85822,7.0663"
     style="fill:none;stroke:#000000;stroke-width:1;stroke-linecap:round"
     id="path10" />
  <path
     d="m 237.24252,-328.91041 11.85822,7.06631 v -139.97033 z m 11.85822,7.06631 24.22115,-3.45953 v -139.97033 z"
     style="fill:#eeeeee;fill-opacity:0.4"
     id="path12" />
  <path
     d="m 261.46367,-472.34027 -24.22115,3.45953 m 24.22115,-3.45953 11.85822,7.06631"
     style="fill:none;stroke:#000000;stroke-width:1;stroke-linecap:round"
     id="path14" />
  <path
     d="m 273.32189,-465.27396 v 139.97033 l -11.85822,-147.03664 z"
     style="fill:#eeeeee;fill-opacity:0.4"
     id="path16" />
  <path
     d="m 143.1339,-484.04047 v 197.17303 m 0,0 11.85822,7.06631"
     style="fill:none;stroke:#000000;stroke-width:1;stroke-linecap:round"
     id="path18" />
  <path
     d="m 237.24252,-468.88074 v 139.97033 l 11.85822,-132.90402 z m -82.2504,189.07961 -11.85822,-7.06631 24.22115,-3.45952 z"
     style="fill:#eeeeee;fill-opacity:0.4"
     id="path20" />
  <path
     d="m 212.31381,-391.08488 4.06762,8.8525 v -9.30357 z m 1.5537,-9.47587 -1.5537,9.47587 4.06762,-0.45107 z"
     style="fill:#000000"
     id="path22" />
  <path
     d="m 237.24252,-468.88074 11.85822,7.06631"
     style="fill:none;stroke:#000000;stroke-width:1;stroke-linecap:round"
     id="path24" />
  <path
     d="m 273.32189,-465.27396 -11.85822,-7.06631 -24.22115,3.45953 z m -94.10862,182.0133 -24.22115,3.45953 12.36293,-10.52583 z"
     style="fill:#eeeeee;fill-opacity:0.4"
     id="path26" />
  <path
     d="m 220.44905,-386.2371 -4.06762,4.00472 23.29583,-12.63094 z m -6.58154,-14.32365 5.02785,2.9961 20.7819,2.70133 z"
     style="fill:#000000"
     id="path28" />
  <path
     d="m 176.77854,-385.87944 39.60289,-5.65651"
     style="fill:none;stroke:#000000;stroke-width:1;stroke-linecap:round"
     id="path30" />
  <path
     d="m 218.89536,-397.56465 1.55369,11.32755 19.22821,-8.62622 z m -2.51393,15.33227 4.06762,-4.00472 -4.06762,-5.29885 z m 2.51393,-15.33227 -5.02785,-2.9961 2.51392,9.0248 z"
     style="fill:#000000"
     id="path32" />
  <path
     d="m 154.99212,-279.80113 24.22115,-3.45953 m 0,-197.17304 v 197.17304"
     style="fill:none;stroke:#000000;stroke-width:1;stroke-linecap:round"
     id="path34" />
  <path
     d="m 249.10074,-461.81443 v 139.97033 l 24.22115,-143.42986 z"
     style="fill:#eeeeee;fill-opacity:0.4"
     id="path36" />
  <path
     d="m 220.44905,-386.2371 -1.55369,-11.32755 -2.51393,6.0287 z"
     style="fill:#000000"
     id="path38" />
  <path
     d="m 167.35505,-290.32696 -24.22115,3.45952 v -197.17303 z m 11.85822,7.0663 -11.85822,-7.0663 V -487.5 Z m 69.88747,-178.55377 24.22115,-3.45953 -36.07937,-3.60678 z"
     style="fill:#eeeeee;fill-opacity:0.4"
     id="path40" />
  <path
     d="m 249.10074,-461.81443 24.22115,-3.45953 m -118.32977,-11.70021 v 197.17304"
     style="fill:none;stroke:#000000;stroke-width:1;stroke-linecap:round"
     id="path42" />
  <path
     d="m 167.35505,-487.5 v 197.17304 L 143.1339,-484.04047 Z"
     style="fill:#eeeeee;fill-opacity:0.4"
     id="path44" />
  <path
     d="m 73.246443,-474.05838 v 197.17304 m 0,0 -24.22115,3.45952 m 24.22115,-3.45952 11.85821,7.0663"
     style="fill:none;stroke:#000000;stroke-width:1;stroke-linecap:round"
     id="path46" />
  <path
     d="m 143.1339,-286.86744 11.85822,7.06631 v -197.17304 z m 11.85822,7.06631 24.22115,-3.45953 V -480.4337 Z"
     style="fill:#eeeeee;fill-opacity:0.4"
     id="path48" />
  <path
     d="m 49.025293,-470.59885 v 197.17303 m 0,0 11.85821,7.06631"
     style="fill:none;stroke:#000000;stroke-width:1;stroke-linecap:round"
     id="path50" />
  <path
     d="m 179.21327,-480.4337 v 197.17304 L 167.35505,-487.5 Z m -36.07937,-3.60677 v 197.17303 l 11.85822,-190.10673 z m -82.250397,217.68096 -11.85821,-7.06631 24.22115,-3.45952 z"
     style="fill:#eeeeee;fill-opacity:0.4"
     id="path52" />
  <path
     d="m 167.35505,-487.5 -24.22115,3.45953 m 24.22115,-3.45953 11.85822,7.0663"
     style="fill:none;stroke:#000000;stroke-width:1;stroke-linecap:round"
     id="path54" />
  <path
     d="m 118.2052,-377.64326 4.06762,8.8525 v -9.30357 z m 1.55369,-9.47587 -1.55369,9.47587 4.06762,-0.45107 z"
     style="fill:#000000"
     id="path56" />
  <path
     d="m 85.104653,-269.81904 -24.22115,3.45953 12.36294,-10.52583 z"
     style="fill:#eeeeee;fill-opacity:0.4"
     id="path58" />
  <path
     d="m 126.34044,-372.79548 -4.06762,4.00472 23.29582,-12.63094 z m -6.58155,-14.32365 5.02785,2.9961 20.7819,2.70133 z"
     style="fill:#000000"
     id="path60" />
  <path
     d="m 82.669923,-372.43782 39.602897,-5.65651"
     style="fill:none;stroke:#000000;stroke-width:1;stroke-linecap:round"
     id="path62" />
  <path
     d="m 124.78674,-384.12303 1.5537,11.32755 19.2282,-8.62622 z m -2.51392,15.33227 4.06762,-4.00472 -4.06762,-5.29885 z m 2.51392,-15.33227 -5.02785,-2.9961 2.51393,9.0248 z"
     style="fill:#000000"
     id="path64" />
  <path
     d="m 60.883503,-266.35951 24.22115,-3.45953 m 0,-197.17304 v 197.17304"
     style="fill:none;stroke:#000000;stroke-width:1;stroke-linecap:round"
     id="path66" />
  <path
     d="m 126.34044,-372.79548 -1.5537,-11.32755 -2.51392,6.0287 z"
     style="fill:#000000"
     id="path68" />
  <path
     d="m 154.99212,-476.97417 v 197.17304 l 24.22115,-200.63257 z"
     style="fill:#eeeeee;fill-opacity:0.4"
     id="path70" />
  <path
     d="m 143.1339,-484.04047 11.85822,7.0663"
     style="fill:none;stroke:#000000;stroke-width:1;stroke-linecap:round"
     id="path72" />
  <path
     d="m 179.21327,-480.4337 -11.85822,-7.0663 -24.22115,3.45953 z m -105.966827,203.54836 -24.22115,3.45952 v -197.17303 z m 11.85821,7.0663 -11.85821,-7.0663 v -197.17304 z"
     style="fill:#eeeeee;fill-opacity:0.4"
     id="path74" />
  <path
     d="m 60.883503,-463.53255 v 197.17304 m -81.74568,-212.73882 v 234.13618 m 0,0 -24.22115,3.45953 m 24.22115,-3.45953 11.8582203,7.0663"
     style="fill:none;stroke:#000000;stroke-width:1;stroke-linecap:round"
     id="path76" />
  <path
     d="m 154.99212,-476.97417 24.22115,-3.45953 -36.07937,-3.60677 z"
     style="fill:#eeeeee;fill-opacity:0.4"
     id="path78" />
  <path
     d="m 154.99212,-476.97417 24.22115,-3.45953"
     style="fill:none;stroke:#000000;stroke-width:1;stroke-linecap:round"
     id="path80" />
  <path
     d="m 73.246443,-474.05838 v 197.17304 l -24.22115,-193.71351 z m -24.22115,200.63256 11.85821,7.06631 v -197.17304 z m 11.85821,7.06631 24.22115,-3.45953 v -197.17304 z"
     style="fill:#eeeeee;fill-opacity:0.4"
     id="path82" />
  <path
     d="m -45.083327,-475.63881 v 234.13619 m 0,0 11.85822,7.0663"
     style="fill:none;stroke:#000000;stroke-width:1;stroke-linecap:round"
     id="path84" />
  <path
     d="m -33.225107,-234.43632 -11.85822,-7.0663 24.22115,-3.45953 z m 118.32976,-232.55576 v 197.17304 l -11.85821,-204.23934 z m -94.1086097,229.09623 -24.2211503,3.45953 12.36293,-10.52583 z m 58.0292497,-232.703 v 197.17303 l 11.85821,-190.10673 z"
     style="fill:#eeeeee;fill-opacity:0.4"
     id="path86" />
  <path
     d="m -150.24576,-423.94905 v 126.5731 m 0,0 -207.93766,29.69993 m 207.93766,-29.69993 58.186983,34.67358 m 165.30522,-211.35601 -24.22115,3.45953 m 24.22115,-3.45953 11.85821,7.0663 m -118.32976,232.55576 24.2211503,-3.45953 m 0,-234.13618 v 234.13618"
     style="fill:none;stroke:#000000;stroke-width:1;stroke-linecap:round"
     id="path88" />
  <path
     d="m 24.096583,-364.20164 4.06762,8.85249 v -9.30356 z m 1.55369,-9.47587 -1.55369,9.47587 4.06762,-0.45107 z m 6.58155,14.32365 -4.06762,4.00471 23.29582,-12.63093 z m -6.58155,-14.32365 5.02786,2.9961 20.78189,2.70133 z"
     style="fill:#000000"
     id="path90" />
  <path
     d="m -11.438697,-358.9962 39.6029,-5.65651"
     style="fill:none;stroke:#000000;stroke-width:1;stroke-linecap:round"
     id="path92" />
  <path
     d="m 30.678133,-370.68141 1.55369,11.32755 19.2282,-8.62622 z m -2.51393,15.33226 4.06762,-4.00471 -4.06762,-5.29885 z m 2.51393,-15.33226 -5.02786,-2.9961 2.51393,9.0248 z"
     style="fill:#000000"
     id="path94" />
  <path
     d="m -20.862177,-244.96215 -24.22115,3.45953 v -234.13619 z m 11.8582203,7.0663 -11.8582203,-7.0663 v -234.13618 z"
     style="fill:#eeeeee;fill-opacity:0.4"
     id="path96" />
  <path
     d="m 32.231823,-359.35386 -1.55369,-11.32755 -2.51393,6.0287 z"
     style="fill:#000000"
     id="path98" />
  <path
     d="m 60.883503,-463.53255 v 197.17304 l 24.22115,-200.63257 z"
     style="fill:#eeeeee;fill-opacity:0.4"
     id="path100" />
  <path
     d="m 49.025293,-470.59885 11.85821,7.0663"
     style="fill:none;stroke:#000000;stroke-width:1;stroke-linecap:round"
     id="path102" />
  <path
     d="m 85.104653,-466.99208 -11.85821,-7.0663 -24.22115,3.45953 z"
     style="fill:#eeeeee;fill-opacity:0.4"
     id="path104" />
  <path
     d="m -33.225107,-468.5725 v 234.13618"
     style="fill:none;stroke:#000000;stroke-width:1;stroke-linecap:round"
     id="path106" />
  <path
     d="m 60.883503,-463.53255 24.22115,-3.45953 -36.07936,-3.60677 z"
     style="fill:#eeeeee;fill-opacity:0.4"
     id="path108" />
  <path
     d="m 60.883503,-463.53255 24.22115,-3.45953"
     style="fill:none;stroke:#000000;stroke-width:1;stroke-linecap:round"
     id="path110" />
  <path
     d="m -45.083327,-241.50262 11.85822,7.0663 V -468.5725 Z m 11.85822,7.0663 24.2211503,-3.45953 v -234.13618 z m 12.36293,-244.66201 v 234.13618 l -24.22115,-230.67666 z"
     style="fill:#eeeeee;fill-opacity:0.4"
     id="path112" />
  <path
     d="m -150.24576,-423.94905 -207.93766,29.69993 m 207.93766,-29.69993 58.186983,34.67358"
     style="fill:none;stroke:#000000;stroke-width:1;stroke-linecap:round"
     id="path114" />
  <path
     d="m -9.0039567,-472.03203 v 234.13618 L -20.862177,-479.09833 Z m -36.0793703,-3.60678 v 234.13619 l 11.85822,-227.06988 z"
     style="fill:#eeeeee;fill-opacity:0.4"
     id="path116" />
  <path
     d="m -70.012037,-350.76003 4.06762,8.8525 v -9.30356 z m 1.5537,-9.47586 -1.5537,9.47586 4.06762,-0.45106 z m 6.58154,14.32365 -4.06762,4.00471 23.29582,-12.63093 z m -6.58154,-14.32365 5.02785,2.9961 20.78189,2.70133 z"
     style="fill:#000000"
     id="path118" />
  <path
     d="m -105.54732,-345.55458 39.602903,-5.65651 m 45.08224,-127.88724 -24.22115,3.45952 m 24.22115,-3.45952 11.8582203,7.0663"
     style="fill:none;stroke:#000000;stroke-width:1;stroke-linecap:round"
     id="path120" />
  <path
     d="m -92.058777,-262.70237 -58.186983,-34.67358 v -126.5731 z"
     style="fill:#eeeeee;fill-opacity:0.4"
     id="path122" />
  <path
     d="m -63.430487,-357.23979 1.55369,11.32755 19.2282,-8.62622 z m -2.51393,15.33226 4.06762,-4.00471 -4.06762,-5.29885 z m 2.51393,-15.33226 -5.02785,-2.9961 2.51392,9.0248 z m 1.55369,11.32755 -1.55369,-11.32755 -2.51393,6.0287 z"
     style="fill:#000000"
     id="path124" />
  <path
     d="m -33.225107,-468.5725 v 234.13618 l 24.2211503,-237.59571 z m -117.020653,44.62345 v 126.5731 l -207.93766,-96.87317 z"
     style="fill:#eeeeee;fill-opacity:0.4"
     id="path126" />
  <path
     d="m -45.083327,-475.63881 11.85822,7.06631"
     style="fill:none;stroke:#000000;stroke-width:1;stroke-linecap:round"
     id="path128" />
  <path
     d="m -9.0039567,-472.03203 -11.8582203,-7.0663 -24.22115,3.45952 z m -24.2211503,3.45953 24.2211503,-3.45953 -36.0793703,-3.60678 z"
     style="fill:#eeeeee;fill-opacity:0.4"
     id="path130" />
  <path
     d="m -33.225107,-468.5725 24.2211503,-3.45953"
     style="fill:none;stroke:#000000;stroke-width:1;stroke-linecap:round"
     id="path132" />
  <path
     d="m -150.24576,-297.37595 -207.93766,29.69993 v -126.5731 z"
     style="fill:#eeeeee;fill-opacity:0.4"
     id="path134" />
  <path
     d="m -358.18342,-394.24912 v 126.5731 m 0,0 58.18698,34.67358"
     style="fill:none;stroke:#000000;stroke-width:1;stroke-linecap:round"
     id="path136" />
  <path
     d="m -92.058777,-389.27547 v 126.5731 l -58.186983,-161.24668 z m -207.937663,156.27303 -58.18698,-34.67358 207.93766,-29.69993 z m 207.937663,-29.69993 -207.937663,29.69993 149.75068,-64.37351 z m 0,-126.5731 -58.186983,-34.67358 -207.93766,29.69993 z"
     style="fill:#eeeeee;fill-opacity:0.4"
     id="path138" />
  <path
     d="m -299.99644,-233.00244 207.937663,-29.69993 m 0,-126.5731 v 126.5731 M -428.07089,-384.26703 v 126.5731 m 0,0 -193.76919,27.67623 m 193.76919,-27.67623 58.18698,34.67358 m 11.70049,-171.22877 58.18698,34.67358 m 0,0 207.937663,-29.69993"
     style="fill:none;stroke:#000000;stroke-width:1;stroke-linecap:round"
     id="path140" />
  <path
     d="m -299.99644,-233.00244 207.937663,-29.69993 v -126.5731 z m -58.18698,-161.24668 v 126.5731 l 58.18698,-91.89952 z"
     style="fill:#eeeeee;fill-opacity:0.4"
     id="path142" />
  <path
     d="m -428.07089,-384.26703 -193.76919,27.67623 m 193.76919,-27.67623 58.18698,34.67358"
     style="fill:none;stroke:#000000;stroke-width:1;stroke-linecap:round"
     id="path144" />
  <path
     d="m -299.99644,-359.57554 207.937663,-29.69993 -266.124643,-4.97365 z m -69.88747,136.55519 -58.18698,-34.67358 v -126.5731 z m 11.70049,-44.65567 58.18698,34.67358 v -126.5731 z m -69.88747,-116.59101 v 126.5731 l -193.76919,-98.89687 z"
     style="fill:#eeeeee;fill-opacity:0.4"
     id="path146" />
  <path
     d="m -392.92159,-290.61847 75.0198,4.24055 m -75.0198,18.08801 75.0198,-18.08801 m -64.75513,24.20472 64.75513,-24.20472 m -64.75513,1.87616 64.75513,-1.87616"
     style="fill:none;stroke:#000000;stroke-width:1;stroke-linecap:round"
     id="path148" />
  <path
     d="m -428.07089,-257.69393 -193.76919,27.67623 v -126.5731 z"
     style="fill:#eeeeee;fill-opacity:0.4"
     id="path150" />
  <path
     d="m -392.92158,-268.28991 v -22.32856 l 75.0198,4.24054 z"
     style="fill:#ffbbbb;fill-opacity:0.4"
     id="path152" />
  <path
     d="m -299.99644,-359.57554 v 126.5731 l 207.937663,-156.27303 z"
     style="fill:#eeeeee;fill-opacity:0.4"
     id="path154" />
  <path
     d="m -392.92158,-290.61847 v 22.32856 m 0,0 -193.7692,27.67623 m 193.7692,-27.67623 10.26468,6.11671 m -10.26469,-28.44527 v 22.32856 m 0,0 10.26467,6.11671"
     style="fill:none;stroke:#000000;stroke-width:1;stroke-linecap:round"
     id="path156" />
  <path
     d="m -382.6569,-262.1732 -10.26468,-6.11671 75.0198,-18.08802 z"
     style="fill:#ffbbbb;fill-opacity:0.4"
     id="path158" />
  <path
     d="m -299.99644,-359.57554 v 126.5731"
     style="fill:none;stroke:#000000;stroke-width:1;stroke-linecap:round"
     id="path160" />
  <path
     d="m -392.92158,-290.61847 10.26468,6.11671 64.75512,-1.87617 z"
     style="fill:#ffbbbb;fill-opacity:0.4"
     id="path162" />
  <path
     d="m -392.92158,-290.61847 -193.7692,27.67623 m 193.7692,-27.67623 10.26468,6.11671 m -10.26469,-6.11671 10.26467,6.11671"
     style="fill:none;stroke:#000000;stroke-width:1;stroke-linecap:round"
     id="path164" />
  <path
     d="m -382.6569,-262.1732 -10.26468,-6.11671 v -22.32856 z"
     style="fill:#99ddff;fill-opacity:0.4"
     id="path166" />
  <path
     d="m -392.92158,-290.61847 v 22.32856 l 10.26468,6.11671 z m 10.26468,6.11671 v 22.32856 l 64.75512,-24.20473 z"
     style="fill:#ffbbbb;fill-opacity:0.4"
     id="path168" />
  <path
     d="m -621.84008,-356.5908 v 126.5731 m 0,0 58.18697,34.67358"
     style="fill:none;stroke:#000000;stroke-width:1;stroke-linecap:round"
     id="path170" />
  <path
     d="m -382.6569,-284.50176 v 22.32856 l -10.26468,-28.44527 z"
     style="fill:#99ddff;fill-opacity:0.4"
     id="path172" />
  <path
     d="m -392.92158,-290.61847 10.26468,28.44527 v -22.32856 z"
     style="fill:#ffbbbb;fill-opacity:0.4"
     id="path174" />
  <path
     d="m -576.4261,-234.49697 193.7692,-27.67623 m 0,-22.32856 v 22.32856 m -2e-5,0 v -22.32856"
     style="fill:none;stroke:#000000;stroke-width:1;stroke-linecap:round"
     id="path176" />
  <path
     d="m -563.65311,-195.34412 -58.18697,-34.67358 193.76919,-27.67623 z m 193.7692,-154.24933 v 126.5731 l -58.18698,-161.24668 z"
     style="fill:#eeeeee;fill-opacity:0.4"
     id="path178" />
  <path
     d="m -576.4261,-256.82553 193.7692,-27.67623"
     style="fill:none;stroke:#000000;stroke-width:1;stroke-linecap:round"
     id="path180" />
  <path
     d="m -369.88391,-223.02035 -193.7692,27.67623 135.58222,-62.34981 z m 0,-126.5731 -58.18698,-34.67358 -193.76919,27.67623 z"
     style="fill:#eeeeee;fill-opacity:0.4"
     id="path182" />
  <path
     d="m -392.92158,-290.61847 v 22.32856 l -193.7692,5.34767 z"
     style="fill:#99ddff;fill-opacity:0.4"
     id="path184" />
  <path
     d="m -563.65311,-195.34412 193.7692,-27.67623 m 0,-126.5731 v 126.5731"
     style="fill:none;stroke:#000000;stroke-width:1;stroke-linecap:round"
     id="path186" />
  <path
     d="m -382.6569,-262.1732 -193.7692,27.67623 183.50452,-33.79294 z m 0,-22.32856 -10.26468,-6.11671 -193.7692,27.67623 z"
     style="fill:#99ddff;fill-opacity:0.4"
     id="path188" />
  <path
     d="m -691.72755,-346.60871 v 126.5731 m 0,0 -159.49537,22.78087 m 159.49537,-22.78087 58.18698,34.67358 m 11.70049,-171.22877 58.18697,34.67358"
     style="fill:none;stroke:#000000;stroke-width:1;stroke-linecap:round"
     id="path190" />
  <path
     d="m -576.4261,-234.49697 193.7692,-27.67623 v -22.32856 z m 183.50452,-33.79294 -193.7692,27.67623 v -22.32856 z m -183.50452,33.79294 -10.26468,-6.11671 193.7692,-27.67623 z"
     style="fill:#99ddff;fill-opacity:0.4"
     id="path192" />
  <path
     d="m -563.65311,-321.91722 193.7692,-27.67623"
     style="fill:none;stroke:#000000;stroke-width:1;stroke-linecap:round"
     id="path194" />
  <path
     d="m -621.84008,-356.5908 v 126.5731 l 58.18697,-91.89952 z m 58.18697,161.24668 193.7692,-27.67623 v -126.5731 z"
     style="fill:#eeeeee;fill-opacity:0.4"
     id="path196" />
  <path
     d="m -576.4261,-256.82553 193.7692,-27.67623 -204.03388,21.55952 z"
     style="fill:#99ddff;fill-opacity:0.4"
     id="path198" />
  <path
     d="m -691.72755,-346.60871 -159.49537,22.78087 m 159.49537,-22.78087 58.18698,34.67358"
     style="fill:none;stroke:#000000;stroke-width:1;stroke-linecap:round"
     id="path200" />
  <path
     d="m -576.4261,-256.82553 v 22.32856 l 193.7692,-50.00479 z"
     style="fill:#99ddff;fill-opacity:0.4"
     id="path202" />
  <path
     d="m -586.69078,-262.94224 v 22.32856 m 0,0 10.26468,6.11671"
     style="fill:none;stroke:#000000;stroke-width:1;stroke-linecap:round"
     id="path204" />
  <path
     d="m -691.72755,-346.60871 v 126.5731 l -159.49537,-103.79223 z m 58.18698,161.24668 -58.18698,-34.67358 v -126.5731 z m 69.88746,-136.55519 193.7692,-27.67623 -251.95617,-6.99735 z"
     style="fill:#eeeeee;fill-opacity:0.4"
     id="path206" />
  <path
     d="m -586.69078,-262.94224 10.26468,6.11671"
     style="fill:none;stroke:#000000;stroke-width:1;stroke-linecap:round"
     id="path208" />
  <path
     d="m -621.84008,-230.0177 58.18697,34.67358 v -126.5731 z"
     style="fill:#eeeeee;fill-opacity:0.4"
     id="path210" />
  <path
     d="m -586.69078,-262.94224 v 22.32856 l 10.26468,-16.21185 z m 0,22.32856 10.26468,6.11671 v -22.32856 z"
     style="fill:#99ddff;fill-opacity:0.4"
     id="path212" />
  <path
     d="m -691.72755,-220.03561 -159.49537,22.78087 v -126.5731 z"
     style="fill:#eeeeee;fill-opacity:0.4"
     id="path214" />
  <path
     d="m -576.4261,-256.82553 v 22.32856 m -274.79682,-89.33087 v 126.5731 m 0,0 58.18698,34.67358"
     style="fill:none;stroke:#000000;stroke-width:1;stroke-linecap:round"
     id="path216" />
  <path
     d="m -563.65311,-321.91722 v 126.5731 l 193.7692,-154.24933 z"
     style="fill:#eeeeee;fill-opacity:0.4"
     id="path218" />
  <path
     d="m -653.92511,-301.17875 75.0198,4.24054 m -75.0198,18.08802 75.0198,-18.08802 m -64.75512,24.20473 64.75512,-24.20473 m -64.75512,1.87617 64.75512,-1.87617 m 15.2522,-24.97901 v 126.5731"
     style="fill:none;stroke:#000000;stroke-width:1;stroke-linecap:round"
     id="path220" />
  <path
     d="m -793.03594,-162.58116 -58.18698,-34.67358 159.49537,-22.78087 z"
     style="fill:#eeeeee;fill-opacity:0.4"
     id="path222" />
  <path
     d="m -653.92511,-278.85019 v -22.32857 l 75.0198,4.24055 z"
     style="fill:#ffbbbb;fill-opacity:0.4"
     id="path224" />
  <path
     d="m -653.92511,-301.17875 v 22.32856 m 0,0 10.26468,6.11671 m -10.26468,-28.44528 v 22.32857 m 0,0 -159.49537,22.78087 m 159.49537,-22.78087 10.26467,6.11671"
     style="fill:none;stroke:#000000;stroke-width:1;stroke-linecap:round"
     id="path226" />
  <path
     d="m -643.66044,-272.73348 -10.26467,-6.11671 75.0198,-18.08802 z"
     style="fill:#ffbbbb;fill-opacity:0.4"
     id="path228" />
  <path
     d="m -633.54057,-185.36203 -159.49537,22.78087 101.30839,-57.45445 z m 0,-126.5731 -58.18698,-34.67358 -159.49537,22.78087 z m 0,0 v 126.5731 l -58.18698,-161.24668 z"
     style="fill:#eeeeee;fill-opacity:0.4"
     id="path230" />
  <path
     d="m -653.92511,-301.17876 10.26467,6.11672 64.75513,-1.87617 z"
     style="fill:#ffbbbb;fill-opacity:0.4"
     id="path232" />
  <path
     d="m -653.92511,-301.17875 10.26468,6.11671 m -10.26468,-6.11672 -159.49537,22.78087 m 159.49537,-22.78087 10.26467,6.11672 m -277.44995,-18.78371 v 126.5731 m 0,0 -38.38961,5.48322 m 38.38961,-5.48322 58.18698,34.67358"
     style="fill:none;stroke:#000000;stroke-width:1;stroke-linecap:round"
     id="path234" />
  <path
     d="m -643.66044,-272.73348 -10.26467,-6.11671 v -22.32857 z"
     style="fill:#99ddff;fill-opacity:0.4"
     id="path236" />
  <path
     d="m -653.92511,-301.17876 v 22.32857 l 10.26467,6.11671 z m 10.26467,6.11672 v 22.32856 l 64.75513,-24.20473 z"
     style="fill:#ffbbbb;fill-opacity:0.4"
     id="path238" />
  <path
     d="m -851.22292,-323.82784 58.18698,34.67358 m 0,126.5731 159.49537,-22.78087 m 0,-126.5731 v 126.5731"
     style="fill:none;stroke:#000000;stroke-width:1;stroke-linecap:round"
     id="path240" />
  <path
     d="m -643.66044,-295.06204 v 22.32856 l -10.26467,-28.44528 z"
     style="fill:#99ddff;fill-opacity:0.4"
     id="path242" />
  <path
     d="m -653.92511,-301.17876 10.26467,28.44528 v -22.32856 z"
     style="fill:#ffbbbb;fill-opacity:0.4"
     id="path244" />
  <path
     d="m -906.42179,-204.87745 75.0198,4.24055 m -75.0198,18.08801 75.0198,-18.08801 m -64.75512,24.20473 64.75512,-24.20473 m -64.75512,1.87616 64.75512,-1.87616 m 28.24618,-49.31571 159.49537,-22.78087 m 0,-22.32856 v 22.32856 m 10e-6,0 v -22.32856 M -959.5,-308.36253 v 126.5731 m 0,0 58.18697,34.67358 m 98.15722,-125.16532 159.49537,-22.78087"
     style="fill:none;stroke:#000000;stroke-width:1;stroke-linecap:round"
     id="path246" />
  <path
     d="m -653.92511,-301.17876 v 22.32857 l -159.49537,0.4523 z"
     style="fill:#99ddff;fill-opacity:0.4"
     id="path248" />
  <path
     d="m -921.11039,-187.27265 -38.38961,5.48322 v -126.5731 z"
     style="fill:#eeeeee;fill-opacity:0.4"
     id="path250" />
  <path
     d="m -906.42179,-182.54888 v -22.32857 l 75.0198,4.24055 z"
     style="fill:#ffbbbb;fill-opacity:0.4"
     id="path252" />
  <path
     d="m -643.66044,-272.73348 -159.49537,22.78087 149.2307,-28.89758 z m 0,-22.32856 -10.26467,-6.11672 -159.49537,22.78087 z"
     style="fill:#99ddff;fill-opacity:0.4"
     id="path254" />
  <path
     d="m -906.42179,-204.87745 v 22.32856 m 0,0 10.26468,6.11672 m -10.26468,-28.44528 v 22.32857 m 0,0 -38.38962,5.48322 m 38.38962,-5.48322 10.26467,6.11671"
     style="fill:none;stroke:#000000;stroke-width:1;stroke-linecap:round"
     id="path256" />
  <path
     d="m -896.15712,-176.43217 -10.26467,-6.11671 75.0198,-18.08802 z"
     style="fill:#ffbbbb;fill-opacity:0.4"
     id="path258" />
  <path
     d="m -851.22292,-323.82784 v 126.5731 l 58.18698,-91.89952 z m -69.88747,9.98209 v 126.5731 L -959.5,-308.36253 Z"
     style="fill:#eeeeee;fill-opacity:0.4"
     id="path260" />
  <path
     d="m -906.42179,-204.87745 10.26467,6.11671 64.75513,-1.87616 z"
     style="fill:#ffbbbb;fill-opacity:0.4"
     id="path262" />
  <path
     d="m -906.42179,-204.87745 10.26468,6.11671 m -10.26468,-6.11671 -38.38962,5.48322 m 38.38962,-5.48322 10.26467,6.11671"
     style="fill:none;stroke:#000000;stroke-width:1;stroke-linecap:round"
     id="path264" />
  <path
     d="m -803.15581,-249.95261 159.49537,-22.78087 v -22.32856 z"
     style="fill:#99ddff;fill-opacity:0.4"
     id="path266" />
  <path
     d="m -921.11039,-313.84575 -38.38961,5.48322 m 38.38961,-5.48322 58.18698,34.67358"
     style="fill:none;stroke:#000000;stroke-width:1;stroke-linecap:round"
     id="path268" />
  <path
     d="m -896.15712,-176.43217 -10.26467,-6.11671 v -22.32857 z"
     style="fill:#99ddff;fill-opacity:0.4"
     id="path270" />
  <path
     d="m -906.42179,-204.87745 v 22.32857 l 10.26467,6.11671 z m 10.26467,6.11671 v 22.32857 l 64.75513,-24.20473 z"
     style="fill:#ffbbbb;fill-opacity:0.4"
     id="path272" />
  <path
     d="m -906.42179,-204.87745 v 22.32857 l -38.38962,-16.84535 z m 252.49668,-73.97274 -159.49537,22.78087 v -22.32857 z"
     style="fill:#99ddff;fill-opacity:0.4"
     id="path274" />
  <path
     d="m -793.03594,-162.58116 159.49537,-22.78087 v -126.5731 z"
     style="fill:#eeeeee;fill-opacity:0.4"
     id="path276" />
  <path
     d="m -906.42179,-182.54888 -38.38962,5.48322 v -22.32857 z"
     style="fill:#99ddff;fill-opacity:0.4"
     id="path278" />
  <path
     d="m -793.03594,-289.15426 159.49537,-22.78087"
     style="fill:none;stroke:#000000;stroke-width:1;stroke-linecap:round"
     id="path280" />
  <path
     d="m -803.15581,-249.95261 -10.26467,-6.11671 159.49537,-22.78087 z m -93.00131,51.19187 v 22.32857 l -10.26467,-28.44528 z"
     style="fill:#99ddff;fill-opacity:0.4"
     id="path282" />
  <path
     d="m -906.42179,-204.87745 10.26467,28.44528 v -22.32857 z"
     style="fill:#ffbbbb;fill-opacity:0.4"
     id="path284" />
  <path
     d="m -944.81141,-199.39423 v 22.32857 m 0,0 10.26468,6.11671"
     style="fill:none;stroke:#000000;stroke-width:1;stroke-linecap:round"
     id="path286" />
  <path
     d="m -934.54673,-170.94895 -10.26468,-6.11671 38.38962,-5.48322 z m 38.38961,-5.48322 -38.38961,5.48322 28.12494,-11.59993 z m 0,-22.32857 -10.26467,-6.11671 -38.38962,5.48322 z"
     style="fill:#99ddff;fill-opacity:0.4"
     id="path288" />
  <path
     d="m -901.31303,-147.11585 -58.18697,-34.67358 38.38961,-5.48322 z"
     style="fill:#eeeeee;fill-opacity:0.4"
     id="path290" />
  <path
     d="m -934.54673,-170.94895 38.38961,-5.48322 m 0,-22.32857 v 22.32857 m 10e-6,0 v -22.32857"
     style="fill:none;stroke:#000000;stroke-width:1;stroke-linecap:round"
     id="path292" />
  <path
     d="m -862.92341,-152.59907 -58.18698,-34.67358 v -126.5731 z"
     style="fill:#eeeeee;fill-opacity:0.4"
     id="path294" />
  <path
     d="m -944.81141,-199.39423 10.26468,6.11672"
     style="fill:none;stroke:#000000;stroke-width:1;stroke-linecap:round"
     id="path296" />
  <path
     d="m -851.22292,-197.25474 58.18698,34.67358 v -126.5731 z"
     style="fill:#eeeeee;fill-opacity:0.4"
     id="path298" />
  <path
     d="m -959.5,-308.36253 58.18697,34.67359"
     style="fill:none;stroke:#000000;stroke-width:1;stroke-linecap:round"
     id="path300" />
  <path
     d="m -793.03594,-289.15426 159.49537,-22.78087 -217.68235,-11.89271 z"
     style="fill:#eeeeee;fill-opacity:0.4"
     id="path302" />
  <path
     d="m -934.54673,-193.27751 38.38961,-5.48323"
     style="fill:none;stroke:#000000;stroke-width:1;stroke-linecap:round"
     id="path304" />
  <path
     d="m -934.54673,-170.94895 38.38961,-5.48322 v -22.32857 z m -10.26468,-28.44528 v 22.32857 l 10.26468,-16.21185 z m 141.6556,-72.88694 159.49537,-22.78087 -169.76004,16.66415 z m -131.39092,79.00366 38.38961,-5.48323 -48.65429,-0.63349 z m -10.26468,16.21185 10.26468,6.11671 v -22.32856 z m 141.6556,-95.21551 v 22.32856 l 159.49537,-45.10943 z"
     style="fill:#99ddff;fill-opacity:0.4"
     id="path306" />
  <path
     d="m -813.42048,-278.39789 v 22.32857 m 0,0 10.26467,6.11671"
     style="fill:none;stroke:#000000;stroke-width:1;stroke-linecap:round"
     id="path308" />
  <path
     d="m -934.54673,-193.27751 v 22.32856 l 38.38961,-27.81179 z"
     style="fill:#99ddff;fill-opacity:0.4"
     id="path310" />
  <path
     d="m -934.54673,-193.27751 v 22.32856 m 121.12625,-107.44894 10.26467,6.11672"
     style="fill:none;stroke:#000000;stroke-width:1;stroke-linecap:round"
     id="path312" />
  <path
     d="m -813.42048,-278.39789 v 22.32857 l 10.26467,-16.21185 z"
     style="fill:#99ddff;fill-opacity:0.4"
     id="path314" />
  <path
     d="m -793.03594,-289.15426 v 126.5731"
     style="fill:none;stroke:#000000;stroke-width:1;stroke-linecap:round"
     id="path316" />
  <path
     d="m -813.42048,-256.06932 10.26467,6.11671 v -22.32856 z"
     style="fill:#99ddff;fill-opacity:0.4"
     id="path318" />
  <path
     d="m -959.5,-308.36253 v 126.5731 l 58.18697,-91.89951 z m 96.57659,155.76346 -38.38962,5.48322 -19.79736,-40.1568 z m 69.88747,-136.55519 v 126.5731 l 159.49537,-149.35397 z m -69.88747,9.98209 -58.18698,-34.67358 -38.38961,5.48322 z"
     style="fill:#eeeeee;fill-opacity:0.4"
     id="path320" />
  <path
     d="m -803.15581,-272.28117 v 22.32856"
     style="fill:none;stroke:#000000;stroke-width:1;stroke-linecap:round"
     id="path322" />
  <path
     d="m -862.92341,-279.17217 v 126.5731 l -58.18698,-161.24668 z m -96.57659,97.38274 58.18697,34.67358 v -126.57309 z"
     style="fill:#eeeeee;fill-opacity:0.4"
     id="path324" />
  <path
     d="m -901.31303,-147.11585 38.38962,-5.48322 m 0,-126.5731 v 126.5731"
     style="fill:none;stroke:#000000;stroke-width:1;stroke-linecap:round"
     id="path326" />
  <path
     d="m -901.31303,-273.68894 38.38962,-5.48323 -96.57659,-29.19036 z"
     style="fill:#eeeeee;fill-opacity:0.4"
     id="path328" />
  <path
     d="m -901.31303,-273.68894 v 126.57309"
     style="fill:none;stroke:#000000;stroke-width:1;stroke-linecap:round"
     id="path330" />
  <path
     d="m -901.31303,-147.11585 38.38962,-5.48322 v -126.5731 z m 0,-126.57309 v 126.57309 l 38.38962,-132.05632 z"
     style="fill:#eeeeee;fill-opacity:0.4"
     id="path332" />
  <path
     d="m -901.31303,-273.68894 38.38962,-5.48323"
     style="fill:none;stroke:#000000;stroke-width:1;stroke-linecap:round"
     id="path334" />
</svg>
